<svg xmlns="http://www.w3.org/2000/svg" viewBox="0 0 7.46 47.71">
  <defs>
    <style>
      .a {
        fill: #c6c6c6;
      }
    </style>
  </defs>
  <title>cogn-rail-delimeter</title>
  <path class="a" d="M19.49,34q0,5.75,0,11.52c0,1.87-.88,3.51-2.08,3.88a2.29,2.29,0,0,1-.61.09l-2.22,0a2.28,2.28,0,0,1-1.91-1.34,4.84,4.84,0,0,1-.63-2.55q0-14,0-27.95c0-.09,0-.21,0-.36h0q0-5.77,0-11.53c0-1.87.88-3.51,2.08-3.87a2,2,0,0,1,.61-.09l2.22,0a2.26,2.26,0,0,1,1.91,1.34,4.84,4.84,0,0,1,.63,2.55q0,14,0,27.95c0,.09,0,.21,0,.36Z" transform="translate(-12.04 -1.73)"/>
</svg>
